<?xml version="1.0" encoding="UTF-8"?>
<svg id="_Шар_1" data-name="Шар 1" xmlns="http://www.w3.org/2000/svg" viewBox="0 0 912.5 193.75">
  <defs>
    <style>
      .cls-1 {
        fill: #e00b22;
      }

      .cls-1, .cls-2, .cls-3, .cls-4, .cls-5 {
        stroke-width: 0px;
      }

      .cls-2 {
        fill: #e10b22;
      }

      .cls-3 {
        fill: #031d48;
      }

      .cls-4 {
        fill: #4bd4ee;
      }

      .cls-5 {
        fill: #e20b22;
      }
    </style>
  </defs>
  <path class="cls-1" d="M78.75,0l5,.62,59.38,18.12,17.5,5v66.25l-1.88,11.88-5.62,16.88-7.5,14.38-8.12,11.88-5.62,6.88-6.88,7.5-10.62,10.62-6.88,5.62-4.38,3.75-10.62,7.5-8.12,5-3.12,1.88-3.75-1.25-11.25-6.88-11.25-8.75-8.12-7.5-6.88-6.25-4.38-5-7.5-8.75-8.12-11.25-7.5-13.12-5-10.62-3.75-11.25-2.5-10.62-.62-4.38-.62-21.25V24.38l.62-1.25,22.5-6.25L56.25,6.88,78.75,0Z"/>
  <path class="cls-3" d="M211.25,28.12h24.38l1.88,2.5,11.25,25.62,7.5,17.5,8.75,19.38,1.88-2.5,9.38-19.38,8.12-17.5,10-21.25,2.5-4.38h24.38v101.88l-.62.62h-21.25v-65.62l-9.38,20.62-9.38,19.38-7.5,17.5-3.12,7.5-.62.62h-6.88l-3.12-5-10-22.5-11.88-26.25-5-11.25v38.12l-.62,26.88h-20.62l-.62-10V36.25l.62-8.12Z"/>
  <path class="cls-4" d="M76.25,36.25h9.38l5.62,2.5,3.12,2.5,3.12,6.25.62,12.5v12.5l21.25-.62,6.25,1.25,5,3.12,4.38,5,1.88,4.38v7.5l-2.5,6.25-3.12,3.75-5.62,3.12-4.38.62h-23.12v26.88l-2.5,6.88-5.62,5-6.25,2.5h-6.88l-5.62-1.88-4.38-3.75-2.5-5-.62-2.5v-28.12h-27.5l-5-2.5-4.38-4.38-2.5-6.25v-7.5l3.75-7.5,3.12-3.12,2.5-1.88,3.75-1.25,25.62-.62.62-21.88,1.88-5.62,5-5.62,5.62-2.5Z"/>
  <path class="cls-3" d="M610,24.38h15l9.38,1.88,7.5,3.12,6.88,4.38,5.62,5-.62,2.5-7.5,6.88-5,5.62-3.75-2.5-6.25-3.75-5.62-1.88-3.12-.62h-10.62l-7.5,1.88-6.88,3.75-6.88,6.25-3.75,5.62-2.5,6.88-.62,3.12v10.62l1.88,7.5,3.75,7.5,5.62,6.25,6.25,4.38,6.25,2.5,6.88,1.25h5.62l9.38-1.88,6.88-3.75,5-4.38,3.12,1.25,6.25,6.88,3.12,3.12,2.5,3.12-5,5-8.12,5-9.38,3.75-10.62,1.88h-12.5l-8.75-1.25-10-3.75-7.5-4.38-8.12-6.88-5.62-7.5-5-9.38-3.12-10.62-.62-4.38v-11.88l1.88-10,4.38-10,5-7.5,5.62-6.25,6.88-5.62,10-5,10-3.12,4.38-.62Z"/>
  <path class="cls-5" d="M835.62,37.5h23.12v16.25h10l7.5,1.88,5,3.75,3.75,5.62,1.25,5v3.12l-26.88.62v29.38l1.88,5,3.75,2.5,8.12.62.62.62.62,8.12v10.62l-.62.62h-15.62l-6.88-2.5-6.25-4.38-3.75-4.38-3.12-6.88-1.25-5.62-.62-5.62v-28.75l-1.88.62h-33.12l4.38-6.88,6.25-6.88,8.12-5,6.88-1.88h8.75v-15.62Z"/>
  <path class="cls-2" d="M539.38,28.75h26.25l-1.25,3.12-6.25,11.25-9.38,16.25-10.62,18.12-5.62,10-2.5,5.62-.62,2.5v5.62l1.88,5.62,3.12,3.12,4.38,1.25,8.75.62.62,1.25v18.12l-9.38.62-9.38-.62-7.5-2.5-5-3.75-5-5.62-3.75-7.5-1.25-5-.62-5.62v-7.5l1.88-8.75,5-10,8.75-15.62,5-8.75,8.75-15.62,3.75-6.25Z"/>
  <path class="cls-3" d="M781.88,53.75h11.25l3.12,1.25-1.25,3.12-3.75,6.25-5,10-8.12.62-5,2.5-3.75,4.38-2.5,5-.62,3.12-.62,40.62h-20V55.62l19.38-.62.62,3.12v6.25l3.75-4.38,6.88-4.38,5.62-1.88Z"/>
  <path class="cls-3" d="M476.25,23.75l-.62,37.5-1.25-1.25-6.25-3.75-8.12-2.5h-10.62l-5.62,1.25-7.5,3.12-5.62,4.38-6.88,7.5-5,10-1.88,10v7.5l.62,4.38,1.88,6.88,3.75,8.12,5.62,6.25,5.62,4.38,6.25,3.12,8.75,1.88h7.5l6.88-1.25,7.5-3.75,5-3.75.62,6.88h18.12V23.75h-18.75ZM476.88,96.88l-1.88,6.25-3.12,5-5,4.38-6.25,2.5h-8.12l-6.88-2.5-5-4.38-3.75-5.62-1.25-4.38v-10l2.5-6.25,3.75-5,5-3.75,5.62-1.88h8.75l6.25,2.5,4.38,3.75,3.75,6.25,1.25,5v8.12Z"/>
  <path class="cls-3" d="M826.88,53.12h8.75v20l-1.25.62h-33.12l4.38-6.88,6.25-6.88,8.12-5,6.88-1.88Z"/>
  <path class="cls-3" d="M735,85.63l-1.25-5.62-3.12-7.5-5-6.88-6.25-5.62-8.12-4.38-7.5-1.88h-11.25l-6.25,1.25-6.88,3.12-6.88,5-5.62,6.88-4.38,8.75-1.88,8.75v10.62l1.88,8.75,3.12,6.88,5,6.88,5,4.38,7.5,4.38,8.12,2.5,10,.62,10.62-1.88,10-5,5.62-5,1.25-2.5-5-5.62-5.62-6.25-3.75,3.12-3.75,2.5-6.25,2.5h-10l-3.75-1.25-5-3.12-3.75-5-2.5-6.88h55.62v-12.5ZM715.62,83.75h-35.62l.62-3.12,5-6.88,5.62-3.12,6.25-1.25,7.5,1.25,5,2.5,4.38,5,1.88,3.75-.62,1.88Z"/>
  <path class="cls-3" d="M408.12,89.38l-.62-5-1.88-6.88-3.12-6.88-3.75-5-6.25-5.62-8.12-4.38-8.12-1.88h-9.38l-8.12,1.88-8.75,4.38-5.62,5-5,6.25-3.75,8.75-1.88,9.38v8.12l.62,3.75,2.5,8.75,3.12,6.25,3.75,4.38,6.25,5.62,7.5,3.75,6.88,1.88,9.38.62,9.38-1.25,6.88-2.5,6.25-3.75,6.88-5.62-.62-2.5-8.75-8.75-2.5-1.25-3.75,3.12-7.5,3.75-6.88,1.25-5.62-.62-6.25-2.5-3.12-2.5-3.75-5-1.88-6.25h55.62v-8.75ZM388.75,83.75h-35.62l.62-3.75,4.38-5.62,3.12-2.5,5.62-1.88h8.75l5.62,2.5,5,4.38,2.5,4.38v2.5Z"/>
</svg>